<svg xmlns="http://www.w3.org/2000/svg" width="225.248" height="38.473" viewBox="0 0 225.248 38.473"><g transform="translate(-2187.214 -76.476)"><path d="M2233.062,117.216c-6.8,0-11.037-3.881-11.037-12.1,0-8.265,4.234-12.146,11.037-12.146s11.038,3.881,11.038,12.146C2244.1,113.335,2239.866,117.216,2233.062,117.216Zm0-20.607c-3.629,0-5.544,3.523-5.544,8.511,0,4.939,1.915,8.364,5.544,8.364s5.544-3.425,5.544-8.364C2238.606,100.131,2236.691,96.609,2233.062,96.609Z" transform="translate(-12.128 -5.748)" fill="#fff"/><path d="M2297.9,101.743v12.6a2.626,2.626,0,0,1-2.722,2.62,2.568,2.568,0,0,1-2.721-2.62V102.751c0-2.873-1.158-4.838-4.435-4.838-3.629,0-5.04,1.965-5.04,4.788v11.642a2.626,2.626,0,0,1-2.721,2.62,2.568,2.568,0,0,1-2.722-2.62V102.751c0-2.873-1.159-4.838-4.435-4.838-3.78,0-5.04,2.218-5.04,5.191v11.239a2.723,2.723,0,0,1-5.443,0V96a2.491,2.491,0,0,1,2.59-2.721c1.459,0,2.8.414,2.8,3.317.616-1.593,3.125-3.62,6.5-3.62,4.133,0,6.493,1.785,7.677,4.2a7.69,7.69,0,0,1,6.99-4.2C2296.032,92.974,2297.9,97.359,2297.9,101.743Z" transform="translate(-26.27 -5.748)" fill="#fff"/><path d="M2360.059,101.743v12.6a2.626,2.626,0,0,1-2.721,2.62,2.568,2.568,0,0,1-2.721-2.62V102.751c0-2.873-1.159-4.838-4.435-4.838-3.629,0-5.04,1.965-5.04,4.788v11.642a2.626,2.626,0,0,1-2.721,2.62,2.568,2.568,0,0,1-2.722-2.62V102.751c0-2.873-1.159-4.838-4.436-4.838-3.779,0-5.039,2.218-5.039,5.191v11.239a2.723,2.723,0,0,1-5.442,0V96a2.49,2.49,0,0,1,2.589-2.721c1.459,0,2.8.414,2.8,3.317.616-1.593,3.125-3.62,6.5-3.62,4.132,0,6.493,1.785,7.677,4.2a7.691,7.691,0,0,1,6.989-4.2C2358.195,92.974,2360.059,97.359,2360.059,101.743Z" transform="translate(-47.927 -5.748)" fill="#fff"/><path d="M2390.374,99.728a2.407,2.407,0,0,1-3.881-1.865,2.5,2.5,0,0,1,.656-1.664c1.411-1.562,3.931-3.225,8.265-3.225,6.25,0,9.979,3.074,9.979,8.417v12.9a2.671,2.671,0,1,1-5.342,0c-1.361,2.167-3.579,2.923-6.6,2.923-4.939,0-8.215-3.074-8.215-7.61,0-4.688,3.78-7.106,8.165-7.106h7.31v-.907c0-2.268-2.37-3.78-5.294-3.78A8.331,8.331,0,0,0,2390.374,99.728Zm10.024,7v-1.411l-6.41,1.091c-2.365.553-3.312,1.378-3.312,3.193,0,1.915,1.361,3.074,4.183,3.074C2397.53,112.679,2400.4,109.555,2400.4,106.733Z" transform="translate(-68.989 -5.748)" fill="#fff"/><path d="M2444.415,101.743v12.6a2.626,2.626,0,0,1-2.721,2.62,2.568,2.568,0,0,1-2.722-2.62V102.751c0-2.873-1.159-4.838-4.435-4.838-3.78,0-5.04,2.218-5.04,5.191v11.239a2.723,2.723,0,0,1-5.443,0V96a2.709,2.709,0,0,1,2.721-2.721,2.924,2.924,0,0,1,2.71,3.29,7.756,7.756,0,0,1,6.463-3.593C2442.8,92.974,2444.415,97.359,2444.415,101.743Z" transform="translate(-82.514 -5.748)" fill="#fff"/><path d="M2477.6,90.016V79.2a2.721,2.721,0,1,1,5.442,0v22.19c0,6.7-4.334,10.08-10.432,10.08-6.8,0-10.785-3.881-10.785-12.1s3.881-12.146,10.231-12.146A6.988,6.988,0,0,1,2477.6,90.016Zm0,4.271a7.034,7.034,0,0,0-4.99-2.423c-3.426,0-5.392,2.52-5.392,7.509,0,4.939,1.915,7.459,5.392,7.459,2.924,0,4.99-1.966,4.99-5.443Z" transform="translate(-95.674)" fill="#fff"/><path d="M2511.606,92.974c8.517,0,10.08,6.552,10.08,10.029,0,1.866,0,4.032-3.074,4.032h-12.449c0,3.629,2.571,5.292,5.9,5.292a8.627,8.627,0,0,0,4.99-1.562,2.713,2.713,0,0,1,1.612-.555,2.366,2.366,0,0,1,2.369,2.369,2.517,2.517,0,0,1-.857,1.865,11.861,11.861,0,0,1-8.114,2.772c-7.005,0-11.34-3.78-11.34-12.2C2500.72,97.308,2504.752,92.974,2511.606,92.974Zm-5.292,10.786,9.979-1.261c0-2.47-1.412-4.888-4.687-4.888C2508.683,97.611,2506.315,98.947,2506.315,103.76Z" transform="translate(-109.224 -5.748)" fill="#fff"/><g transform="translate(2187.214 87.214)"><path d="M2192.707,105.052c0-4.737,1.915-8.462,5.443-8.462,2.52,0,3.83,2.262,4.485,2.969a2.432,2.432,0,0,0,1.865.856,2.434,2.434,0,0,0,1.864-3.981,10.39,10.39,0,0,0-8.214-3.478c-6.854,0-10.937,3.881-10.937,12.1,0,6.637,2.667,10.475,7.305,11.705v-5.1A10.793,10.793,0,0,1,2192.707,105.052Z" transform="translate(-2187.214 -92.956)" fill="#fff"/><path d="M2214.806,121.6a2.445,2.445,0,0,0-3.932-1.916c-.429.318-.909.8-1.459,1.285v4.9a11.325,11.325,0,0,0,4.533-2.4A2.4,2.4,0,0,0,2214.806,121.6Z" transform="translate(-2194.949 -102.091)" fill="#fff"/></g><path d="M2202.057,123.467a4.471,4.471,0,0,1-3.632-1.8v9.029l3.581-2.428,3.581,2.428v-8.861A5.414,5.414,0,0,1,2202.057,123.467Z" transform="translate(-3.906 -15.743)" fill="#161615"/></g></svg>