<svg xmlns="http://www.w3.org/2000/svg" width="28.619" height="28.619" viewBox="0 0 28.619 28.619"><path d="M1865.186,104.964h-7.37a3.787,3.787,0,0,0-3.772,3.773v7.853a3.787,3.787,0,0,0,3.772,3.773h7.37a3.788,3.788,0,0,0,3.772-3.773v-7.853a3.788,3.788,0,0,0-3.772-3.773Zm-3.658,12.483a4.853,4.853,0,1,1,4.853-4.853A4.853,4.853,0,0,1,1861.528,117.447Zm4.931-8.633a1.149,1.149,0,1,1,1.149-1.149A1.149,1.149,0,0,1,1866.459,108.814Z" transform="translate(-1847.191 -98.354)" fill="#f7f8f9"/><path d="M1759.767.207a14.31,14.31,0,1,0,14.31,14.31A14.31,14.31,0,0,0,1759.767.207Zm8.813,18.236a5.142,5.142,0,0,1-5.127,5.127h-7.37a5.142,5.142,0,0,1-5.127-5.127V10.59a5.142,5.142,0,0,1,5.127-5.128h7.37a5.142,5.142,0,0,1,5.127,5.128Z" transform="translate(-1745.457 -0.207)" fill="#f7f8f9"/><circle cx="3.178" cy="3.178" r="3.178" transform="translate(11.135 11.066)" fill="#f7f8f9"/></svg>