<svg xmlns="http://www.w3.org/2000/svg" width="28.619" height="28.619" viewBox="0 0 28.619 28.619"><path d="M25.044,4.847A14.392,14.392,0,0,0,23.083,3,14.312,14.312,0,0,0,5.537,3,14.31,14.31,0,1,0,25.044,4.847Zm-14.826,16.7a.565.565,0,0,1-.566.565H7.246a.565.565,0,0,1-.566-.565V11.458a.566.566,0,0,1,.566-.565H9.653a.566.566,0,0,1,.566.565ZM8.45,9.942a2.286,2.286,0,1,1,2.286-2.286A2.286,2.286,0,0,1,8.45,9.942ZM22.793,21.591a.52.52,0,0,1-.52.52H19.692a.52.52,0,0,1-.52-.52V16.86c0-.706.207-3.094-1.844-3.094-1.592,0-1.914,1.634-1.979,2.367v5.457a.52.52,0,0,1-.52.52h-2.5a.52.52,0,0,1-.52-.52V11.413a.52.52,0,0,1,.52-.52h2.5a.52.52,0,0,1,.52.52v.88a3.546,3.546,0,0,1,3.334-1.569c4.135,0,4.111,3.863,4.111,5.986Z" fill="#f7f8f9"/></svg>