<svg xmlns="http://www.w3.org/2000/svg" viewBox="0 0 379.46 735.44"><defs><style>.cls-1{fill:none;stroke:#575756;stroke-miterlimit:10;stroke-width:0.75px;}</style></defs><title>trama</title><g id="Capa_2" data-name="Capa 2"><g id="Capa_6" data-name="Capa 6"><path class="cls-1" d="M0,27.66H219.18a2.06,2.06,0,0,1,2.06,2.06v78.84a2.06,2.06,0,0,0,2.06,2.06h51.19a2.06,2.06,0,0,0,2.06-2.06V57.37a2.06,2.06,0,0,0-2.06-2.06H57.38a2.06,2.06,0,0,0-2.06,2.08c.33,67.89,21.22,108.54,55.3,108.54,37.64,0,54.27-21.36,55.28-53.2a2,2,0,0,0-2.06-2.11H29.72a2.06,2.06,0,0,0-2.06,2.06v106.5a2.06,2.06,0,0,0,2.06,2.06h65a2.06,2.06,0,0,1,2.06,2.06v67.08"/><path class="cls-1" d="M96.8,290.38a41.49,41.49,0,0,0,80.87,13A2.09,2.09,0,0,1,179,302.1a41.48,41.48,0,0,0-13.06-80.86H98.85a2.06,2.06,0,0,0-2.06,2.06Z"/><path class="cls-1" d="M207.42,262.72h11.76a2.06,2.06,0,0,0,2.06-2.06V140.34a2.06,2.06,0,0,1,2.06-2.06h53.25s40.92,0,41.48,40.64a2.07,2.07,0,0,0,.59,1.43l23.55,23.55a2.06,2.06,0,0,1-1.46,3.51h-36.5s-13.83,0-13.83-13.82V179.76"/><path class="cls-1" d="M318,207.41v24.53a3,3,0,0,1-3.19,3c-11.77-.76-52.12-5.93-52.12-41.35"/><path class="cls-1" d="M313.25,234.82s4.78,27.9-22.87,27.9-41.48,0-41.48,13.83c0,9.93,7.12,12.73,11.15,13.52a3.28,3.28,0,0,1,2.67,3.21v64.18a2.06,2.06,0,0,1-2.06,2.06H209.48a2.06,2.06,0,0,1-2.06-2.06V333.92a2.06,2.06,0,0,1,2.06-2.06H233a2.06,2.06,0,0,1,2.06,2.06v51.19a2.06,2.06,0,0,1-2.06,2.06H166.78a2.07,2.07,0,0,1-1.45-.6l-40.28-40.28a2.09,2.09,0,0,0-1.46-.6H29.72a2.06,2.06,0,0,0-2.06,2.06v9.71a2.06,2.06,0,0,0,2.06,2.06h9.7a2.06,2.06,0,0,0,2.06-2.06v-65a2.06,2.06,0,0,1,2.06-2.06H80.9A2.07,2.07,0,0,1,83,292.44V469.28a2,2,0,0,0,.6,1.46L110,497.19a2.07,2.07,0,0,0,1.45.6H178.9a2.07,2.07,0,0,0,1.46-.6l26.45-26.45a2,2,0,0,1,1.46-.6h52.39a2.06,2.06,0,0,0,2.06-2.06V415.31a2.1,2.1,0,0,0-.21-.92l-12.12-24.24a2.06,2.06,0,0,1,1.84-3H287a2.06,2.06,0,0,1,1.85,3l-12.12,24.24a2.11,2.11,0,0,0-.22.92v80.42a2.06,2.06,0,0,0,2.06,2.06H316a2.06,2.06,0,0,0,2.06-2.06V458a2.06,2.06,0,0,0-1.5-2c-3.57-1-12.32-5-12.32-21.05,0-20.12,14.12-20.1,20.79-20.1s20.69.08,20.69,20.77c0,15.19-7.46,19.23-11.42,20.3a3.27,3.27,0,0,0-2.41,3.15v92a2.06,2.06,0,0,0,2.06,2.06h2.68a2.06,2.06,0,0,0,2.06-2.06V513.68a2.06,2.06,0,0,1,2.06-2.06h2.91a2.06,2.06,0,0,1,2.06,2.06V551a2.06,2.06,0,0,0,2.06,2.06h2.52a2.06,2.06,0,0,0,2.06-2.06V513.68a2.06,2.06,0,0,1,2.06-2.06h3.07a2.06,2.06,0,0,1,2.06,2.06V551a2.06,2.06,0,0,0,2.06,2.06h2.69a2.06,2.06,0,0,0,2.06-2.06V497.79s-.3-12.51-12.1-13.73a2.08,2.08,0,0,1-1.9-2.05V388.16a2,2,0,0,0-.77-1.61L318.6,360a2.09,2.09,0,0,0-1.29-.45H292.44a2.06,2.06,0,0,1-2.06-2.06V345.69S290.38,318,318,318h25.6a2.06,2.06,0,0,0,2.06-2.06V238.4a2.06,2.06,0,0,1,3-1.84l21.69,10.84a2.06,2.06,0,0,0,3-1.84V181a2.06,2.06,0,0,0-1.14-1.84L346.83,166.5a2.06,2.06,0,0,1-1.14-1.84V125.3a2.06,2.06,0,0,0-.61-1.46L304.81,83.57a2,2,0,0,0-1.46-.6H197.87a2.06,2.06,0,0,1-1.61-3.35l52.18-65.23a2,2,0,0,0,.46-1.29V0"/><path class="cls-1" d="M263.91,168.74s12.64-12.64,25.29,0"/><path class="cls-1" d="M60.44,110.62s-18,0-18.92,25.51a2.08,2.08,0,0,0,2.07,2.15H55.31"/><circle class="cls-1" cx="248.5" cy="54.95" r="14.19"/><path class="cls-1" d="M152.1,221.24V168a2.06,2.06,0,0,1,2.06-2.06h53.26L193.8,193.15a2.1,2.1,0,0,0-.21.92v37.74"/><path class="cls-1" d="M152.1,174.29s-26.19,5.18-27.59,31a2.06,2.06,0,0,0,2.06,2.17h9.64a2.07,2.07,0,0,0,2.07-2.06v-5.73"/><path class="cls-1" d="M179.76,165.93s0,12.64-12.09,13.75a2.07,2.07,0,0,0-1.88,1.78c-.52,3.69-2.89,12.13-13.69,12.13"/><path class="cls-1" d="M345.69,262.72s-40.65,0-41.47,26.83a2.06,2.06,0,0,1-.6,1.41l-9.72,9.73a2.06,2.06,0,0,0,1.45,3.52h6.8a2.06,2.06,0,0,1,2.06,2.06h0a2.06,2.06,0,0,0,2.06,2.06h8.44a2.06,2.06,0,0,1,1.41,3.57c-1.61,1.47-4.54,2.89-9.94,3.17a2.07,2.07,0,0,0-2,2.06v3.95"/><path class="cls-1" d="M317.88,290.38a7,7,0,0,1,6.78-4.68,8.18,8.18,0,0,1,7.35,4"/><circle class="cls-1" cx="207.41" cy="311.41" r="3.63"/><circle class="cls-1" cx="215.56" cy="296.25" r="7"/><circle class="cls-1" cx="229.44" cy="277.78" r="9.15"/><circle class="cls-1" cx="248.9" cy="494.5" r="13.83"/><path class="cls-1" d="M245,428.65H210.27a2.06,2.06,0,0,1-2-2.71l1.85-5.56h0l4.95-14.88h0l26.55,9a2.07,2.07,0,0,1,1.26,1.21l1.39,3.56,2.56,6.56A2.06,2.06,0,0,1,245,428.65Z"/><line class="cls-1" x1="242.6" y1="414.82" x2="231.8" y2="387.17"/><line class="cls-1" x1="221.24" y1="387.17" x2="215.14" y2="405.49"/><path class="cls-1" d="M235.08,428.58c-.75,4.26-3.67,10.34-7.37,12.3a13.84,13.84,0,0,1-20.09-9.83,2.07,2.07,0,0,1,2-2.4h10.68"/><path class="cls-1" d="M237,428.65h8.76a2.07,2.07,0,0,1,2,2.4,13.86,13.86,0,0,1-13.62,11.43,13.46,13.46,0,0,1-2.48-.22"/><path class="cls-1" d="M221.24,442.48a13.67,13.67,0,0,0,5.62-1.19,2.07,2.07,0,0,1,1.69,0,13.71,13.71,0,0,0,5.62,1.19"/><path class="cls-1" d="M242.09,439.92c-.76,11-8.08,14.46-14.38,14.46S216.79,452,213.24,440"/><circle class="cls-1" cx="221.24" cy="433.7" r="1.32"/><circle class="cls-1" cx="243.25" cy="432.39" r="0.66"/><circle class="cls-1" cx="228.37" cy="445.95" r="0.5"/><circle class="cls-1" cx="220.06" cy="446.4" r="1"/><line class="cls-1" x1="222.56" y1="408.01" x2="236.33" y2="398.77"/><path class="cls-1" d="M88.63,150.41l-4.33-6.08a2.06,2.06,0,0,1,.68-3l5-2.8a2.07,2.07,0,0,1,1-.26h11.22"/><path class="cls-1" d="M124.5,110.62s.15,26.46-21.83,27.61a2,2,0,0,0-1.87,1.57L98.55,149a2.06,2.06,0,0,1-.81,1.19l-4.5,3.19a2.05,2.05,0,0,1-2.87-.48l-1.74-2.44"/><path class="cls-1" d="M235.07,138.28V126.51a2.06,2.06,0,0,0-2.06-2.06H195.65a2.06,2.06,0,0,1-2.06-2.06V71.2a2.06,2.06,0,0,0-2.06-2.06H154.16a2.06,2.06,0,0,0-2.06,2.06v9.7A2.07,2.07,0,0,0,154.16,83h9.71a2.07,2.07,0,0,0,2.06-2.07V27.7"/><path class="cls-1" d="M304.21.36V67.08a2.06,2.06,0,0,0,2.06,2.06H329.8a2.06,2.06,0,0,0,2.06-2.06V57A2.06,2.06,0,0,0,329.8,55h-9.71A2.06,2.06,0,0,0,318,57v79.2a2.06,2.06,0,0,0,2.06,2.06h25.6"/><path class="cls-1" d="M121.2,497.79V620.48h91.14s-13.74-16.42-19.5-16.42h108c-5.59,0-19.8,16.42-19.8,16.42"/><path class="cls-1" d="M235.77,604.06h-24a12,12,0,0,1,24,0Z"/><path class="cls-1" d="M252.9,597.71a11.36,11.36,0,0,1-1.93,6.35h-15.2a12,12,0,0,0-5.08-9.79,11.37,11.37,0,0,1,22.21,3.44Z"/><path class="cls-1" d="M291,604.06a6.61,6.61,0,0,0,2-3.44c1-3.73-2.07-4.48-7.74-3.45-1.63.29-3.49.74-5.52,1.3a24,24,0,0,1-6.4,1c-3,0-5.26-1-8.35-2.42-1.29-.61-2.73-1.3-4.45-2-6.71-2.89-6.92,3.93-5.26,9"/><path class="cls-1" d="M285.84,604.06a4.52,4.52,0,0,0,.72-2.18,5.56,5.56,0,0,0-1.3-4.71c-1.95-2.08-5.65-2.42-8.18-3.67a4.61,4.61,0,0,1-2.27-2.1c-2.14-4.55,13.27-5,9.78-.66-1.35,1.71-4.21,2.27-7.51,2.76a65.77,65.77,0,0,0-6.65,1.21A15.5,15.5,0,0,0,265,597.1a9.77,9.77,0,0,0-2.56,2.64,5.37,5.37,0,0,0-1,4.32"/><path class="cls-1" d="M263.73,604.06a11.51,11.51,0,0,1,3-1.67c2.77-1,6.87.48,10.61,1.67"/><path class="cls-1" d="M282.16,604.06a6.88,6.88,0,0,0-2.67-1c-.77-.13-1.61-.21-2.15-.25-1.73-.14-2.9-1.5-4-3.25-.94-1.48-1.81-3.25-2.91-4.81a8.9,8.9,0,0,0-4.33-3.56c-5.94-2-13.2,4.18-13.2,4.18"/><circle class="cls-1" cx="243.84" cy="592.49" r="1.18"/><circle class="cls-1" cx="238.82" cy="598.77" r="1.18"/><circle class="cls-1" cx="225.41" cy="594.55" r="1.18"/><circle class="cls-1" cx="220.2" cy="598.42" r="1.18"/><circle class="cls-1" cx="121.2" cy="620.48" r="58.61"/><circle class="cls-1" cx="83.43" cy="363.43" r="35.75"/><path class="cls-1" d="M255.44,553.1h-30v30a30,30,0,1,1,30-30Z"/><path class="cls-1" d="M211.77,620.48H320.4s-51.66,9.1-51.66,55.21c0,0-7.67,14.66-8.82,17.06-.64,1.34,2.53,3.81,12.58,1.92"/><path class="cls-1" d="M267.53,695.28V705s30.83,5.69,30.83-5.3"/><path class="cls-1" d="M319,727.16c0-14.78-27.85-1.89-36.85-2.27s2.56.38-4.82-.38-5.13-15.35-5.13-15.35,9.48,1.05,14.4-2.7"/><path class="cls-1" d="M283.71,674.35s8.65-8.43,19.36-3.16"/><polyline class="cls-1" points="225.4 592.06 225.4 583.13 225.4 553.1 255.44 553.1 282.16 553.1 282.16 538.38 300.82 538.38 300.82 497.79"/><polyline class="cls-1" points="133.45 497.79 133.45 435.02 162.76 435.02 162.76 497.79"/><path class="cls-1" d="M133.45,447.75s5.66-1.8,9.45-1.8,8.33,2.5,12.12,2.5a51.23,51.23,0,0,0,7.74-.7"/><polygon class="cls-1" points="143.28 455.65 149.81 460.76 144.7 466.83 138.25 461.24 143.28 455.65"/><polygon class="cls-1" points="148.61 476.11 153.51 470.62 159.57 476.01 154.55 481.61 148.61 476.11"/><polyline class="cls-1" points="157.45 421.16 168.7 426.72 159.57 418.26 144.95 416.36 157.45 421.16 146.87 446.6"/><polyline class="cls-1" points="347.75 553.1 347.75 727.16 216.12 727.16 216.12 620.48"/><line class="cls-1" x1="347.75" y1="662.92" x2="379.08" y2="630.44"/><path class="cls-1" d="M354,656.4h0c0-14.15,10.9-26,25.05-26h0c0,14.14-10.9,26-25.05,26Z"/><line class="cls-1" x1="360.03" y1="650.18" x2="366.56" y2="650.18"/><line class="cls-1" x1="368.19" y1="641.72" x2="368.19" y2="635.93"/><line class="cls-1" x1="347.75" y1="609.88" x2="378.72" y2="577.77"/><path class="cls-1" d="M354,603.44h0c0-14,10.78-25.67,24.76-25.67h0c0,14-10.77,25.67-24.76,25.67Z"/><line class="cls-1" x1="359.89" y1="597.29" x2="366.34" y2="597.29"/><line class="cls-1" x1="367.96" y1="588.93" x2="367.96" y2="583.2"/><line class="cls-1" x1="347.22" y1="631.07" x2="319.21" y2="604.06"/><path class="cls-1" d="M341.6,625.66h0c-12.2,0-22.39-9.4-22.39-21.6h0c12.2,0,22.39,9.4,22.39,21.6Z"/><line class="cls-1" x1="336.24" y1="620.49" x2="336.24" y2="614.86"/><line class="cls-1" x1="328.94" y1="613.45" x2="323.95" y2="613.45"/><line class="cls-1" x1="142.04" y1="620.62" x2="142.04" y2="735.44"/><polyline class="cls-1" points="146.97 620.3 163.07 613.67 163.07 544.13 133.71 522.15 196.8 522.15 166.68 544.13 166.68 613.74 179.81 620.48"/><circle class="cls-1" cx="159.6" cy="530.17" r="4.17"/><line class="cls-1" x1="160.61" y1="528.91" x2="176.78" y2="511.98"/><polyline class="cls-1" points="94.3 483.31 45.79 540.15 0.32 540.15"/></g></g></svg>