<svg xmlns="http://www.w3.org/2000/svg" width="28.619" height="28.619" viewBox="0 0 28.619 28.619"><path d="M1191.577,9.938a14.387,14.387,0,1,0,.681,4.374A14.349,14.349,0,0,0,1191.577,9.938Zm-4.333-.345a7.6,7.6,0,0,1-1.643,1.662,10.529,10.529,0,0,1-2.034,6.671,9.993,9.993,0,0,1-4.758,3.637,1.312,1.312,0,0,0-.372.118c-.3.067-.584.156-.87.23-.038,0-.091-.016-.1.019-.26.035-.509.077-.748.131h-.048c-.043.016-.145-.029-.148.022h-.048c-.057.009-.164-.035-.178.028h-.074c-.071.013-.193-.035-.22.02h-.131c-.129.016-.332-.038-.419.025h-.5c-.094-.064-.3-.009-.424-.025h-.1c-.022-.054-.155-.006-.222-.02h-.075c-.009-.064-.124-.019-.172-.028h-.05c0-.051-.087-.016-.125-.022h-.053c.007-.054-.084-.013-.122-.029h-.05a.786.786,0,0,0-.247-.048.425.425,0,0,0-.179-.025,13.581,13.581,0,0,1-2.112-.667c-.03,0-.033-.038-.078-.022a.508.508,0,0,0-.27-.134c-.006-.019-.023-.025-.05-.019a.1.1,0,0,0-.1-.048.422.422,0,0,0-.2-.105c-.188-.165-.572-.277-.671-.45h.121c.065.054.23.007.329.023h.124a.607.607,0,0,0,.425,0h.121c.1-.016.262.032.328-.023h.023c.057-.009.18.029.2-.025h.051c.043-.013.144.032.151-.019h.024a6.975,6.975,0,0,0,3.41-1.474c-.046-.054-.194-.007-.279-.022h-.024c-.162-.049-.351-.068-.52-.1-.033-.006-.05-.035-.1-.02a3.78,3.78,0,0,1-2.436-2.291c-.008-.028,0-.07-.023-.08,0-.029.023-.032.046-.045a.9.9,0,0,0,.4.045h.024a2.972,2.972,0,0,0,1.15-.093,3.693,3.693,0,0,1-2.911-3.64,3.776,3.776,0,0,0,1.592.427,3.884,3.884,0,0,1-1.57-3.036,4.058,4.058,0,0,1,.473-1.815,6.208,6.208,0,0,1,.7.714,10.359,10.359,0,0,0,6.864,3.088,3.7,3.7,0,0,1,3.314-4.5,3.769,3.769,0,0,1,2.989,1.152,8.288,8.288,0,0,0,2.289-.853,3.82,3.82,0,0,1-1.546,1.991,7.11,7.11,0,0,0,1.987-.545C1187.428,9.462,1187.293,9.532,1187.245,9.593Z" transform="translate(-1163.639 -0.002)" fill="#f7f8f9"/></svg>